GRFwalking.mot
version=1
nRows=21
nColumns=37
inDegrees=yes
endheader
time	ground_force_calcn_l_vx	ground_force_calcn_l_vy	ground_force_calcn_l_vz	ground_force_calcn_l_px	ground_force_calcn_l_py	ground_force_calcn_l_pz	ground_torque_calcn_l_vx	ground_torque_calcn_l_vy	ground_torque_calcn_l_vz	ground_force_calcn_r_vx	ground_force_calcn_r_vy	ground_force_calcn_r_vz	ground_force_calcn_r_px	ground_force_calcn_r_py	ground_force_calcn_r_pz	ground_torque_calcn_r_vx	ground_torque_calcn_r_vy	ground_torque_calcn_r_vz	ground_force_hand_l_vx	ground_force_hand_l_vy	ground_force_hand_l_vz	ground_force_hand_l_px	ground_force_hand_l_py	ground_force_hand_l_pz	ground_torque_hand_l_vx	ground_torque_hand_l_vy	ground_torque_hand_l_vz	ground_force_hand_r_vx	ground_force_hand_r_vy	ground_force_hand_r_vz	ground_force_hand_r_px	ground_force_hand_r_py	ground_force_hand_r_pz	ground_torque_hand_r_vx	ground_torque_hand_r_vy	ground_torque_hand_r_vz
 2.999974      39.13491      320.5709      7.589551     0.8853425 -5.421011e-17    -0.3579385             0      1.144163             0     -36.49981      480.1987     -8.751082      1.127172 -6.938894e-17    -0.2177093             0      1.275067             0             0             0             0       1.14157     0.7854587    -0.5368205             0             0             0             0             0             0      1.132551     0.7639203   -0.03689649             0             0             0
 3.016641      35.97891      298.4182      5.148999     0.8940421 -5.464379e-17    -0.3594241             0      1.116102             0     -36.48653      510.3323     -8.268645       1.12646 -6.938894e-17    -0.2179023             0      1.243897             0             0             0             0      1.142209     0.7847846    -0.5385273             0             0             0             0             0             0      1.146042     0.7657048   -0.03510051             0             0             0
 3.033307      32.47181      272.4094      2.373392      0.903601 -5.551115e-17    -0.3607258             0      1.065155             0      -36.1936      543.8288      -7.84482      1.125809 -6.852158e-17    -0.2181246             0      1.186721             0             0             0             0      1.142679     0.7843668    -0.5402694             0             0             0             0             0             0      1.159412     0.7679129   -0.03344175             0             0             0
 3.049974      28.74869      241.7053     -0.407143     0.9134506 -5.551115e-17    -0.3620585             0     0.9915744             0     -35.65351      580.7328     -7.807145       1.12519 -6.852158e-17    -0.2183728             0      1.103615             0             0             0             0      1.143018     0.7841418    -0.5420027             0             0             0             0             0             0      1.172625     0.7704562    -0.0319347             0             0             0
 3.066641      24.92889      206.2577     -2.844093     0.9249512 -5.724587e-17     -0.362554             0     0.9001743             0     -34.86953      620.2395     -8.484777      1.124548 -6.852158e-17    -0.2186313             0     0.9998434             0             0             0             0      1.143263     0.7840274    -0.5436773             0             0             0             0             0             0      1.185656     0.7732216    -0.0305803             0             0             0
 3.083307       21.0943      167.0331     -4.639956     0.9407656  -5.89806e-17    -0.3597661             0     0.8002835             0     -33.80328        660.59     -10.11884      1.123812 -6.852158e-17    -0.2188741             0     0.8858805             0             0             0             0      1.143442     0.7839403     -0.545242             0             0             0             0             0             0      1.198491     0.7760965   -0.02936877             0             0             0
 3.099974      17.28826      126.0102     -5.614191     0.9573237  -5.89806e-17    -0.3538452             0     0.7040829             0     -32.38583      699.2188     -12.78099      1.122897 -6.895526e-17    -0.2190714             0     0.7756629             0             0             0             0       1.14357      0.783816    -0.5466518             0             0             0             0             0             0      1.211116     0.7789971   -0.02828818             0             0             0
  3.11664             0             0             0             0             0             0             0             0             0     -30.55066      733.1691     -16.32496      1.121716 -6.852158e-17    -0.2192013             0     0.6830363             0             0             0             0      1.143634     0.7836312    -0.5478797             0             0             0             0             0             0      1.223511     0.7818931   -0.02733743             0             0             0
 3.133307             0             0             0             0             0             0             0             0             0     -28.27619      759.6876     -20.38818      1.120191 -6.852158e-17     -0.219261             0     0.6171519             0             0             0             0      1.143596     0.7834158    -0.5489252             0             0             0             0             0             0      1.235633     0.7848198   -0.02653834             0             0             0
 3.149974             0             0             0             0             0             0             0             0             0     -25.61856      776.8131     -24.44645      1.118263 -6.852158e-17    -0.2192742             0     0.5783031             0             0             0             0      1.143402     0.7832463    -0.5498174             0             0             0             0             0             0      1.247422      0.787863   -0.02593954             0             0             0
  3.16664             0             0             0             0             0             0             0             0             0     -22.71909      783.7578     -27.90952      1.115912 -6.852158e-17    -0.2192902             0     0.5559141             0             0             0             0      1.143004     0.7832149    -0.5506083             0             0             0             0             0             0      1.258814     0.7911148   -0.02560813             0             0             0
 3.183307             0             0             0             0             0             0             0             0             0     -19.78175      780.9711     -30.23568      1.113176  -6.80879e-17    -0.2193734             0     0.5298149             0             0             0             0      1.142376     0.7833849    -0.5513587             0             0             0             0             0             0      1.269759     0.7946177   -0.02561015             0             0             0
 3.199973             0             0             0             0             0             0             0             0             0      -17.0281      769.9112     -31.04025      1.110169 -6.797948e-17    -0.2195831             0     0.4748383             0             0             0             0      1.141526     0.7837527    -0.5521196             0             0             0             0             0             0      1.280237     0.7983226   -0.02598558             0             0             0
  3.21664             0             0             0             0             0             0             0             0             0     -14.64366      752.6555     -30.17518      1.106996 -6.787106e-17    -0.2199588             0     0.3676639             0             0             0             0      1.140495      0.784238    -0.5529137             0             0             0             0             0             0      1.290263     0.8020836   -0.02672684             0             0             0
 3.233306             0             0             0             0             0             0             0             0             0     -12.73141      731.5031     -27.76247      1.104156 -6.765422e-17     -0.220457             0     0.1940732             0             0             0             0      1.139349      0.784701    -0.5537242             0             0             0             0             0             0      1.299884     0.8056898    -0.0277697             0             0             0
 3.249973             0             0             0             0             0             0             0             0             0     -11.28469      708.6842     -24.17207      1.102158 -6.765422e-17    -0.2209935             0   -0.04551887             0             0             0             0      1.138168     0.7849789    -0.5544955             0             0             0             0             0             0      1.309167      0.808918   -0.02900201             0             0             0
  3.26664             0             0             0             0             0             0             0             0             0     -10.18693      686.2103     -19.94477      1.101404 -6.765422e-17     -0.221466             0    -0.3341579             0             0             0             0      1.137033     0.7849244    -0.5551491             0             0             0             0             0             0       1.31818     0.8115845   -0.03028839             0             0             0
 3.283306     -3.256697      41.05629      -12.4849      1.124918 -6.938894e-17    -0.3866929             0    -0.8046282             0     -9.238799      665.8334     -15.67407      1.102204 -6.765422e-17    -0.2217715             0    -0.6410764             0             0             0             0      1.136028     0.7844388    -0.5556087             0             0             0             0             0             0      1.326983     0.8135834    -0.0315015             0             0             0
 3.299973     -2.677805      57.72658      -14.4979      1.155638 -6.938894e-17    -0.3864922             0     -1.097823             0     -8.206043      649.0424     -11.87558      1.104612 -6.765422e-17    -0.2218491             0    -0.9285421             0             0             0             0      1.135236     0.7834932    -0.5558256             0             0             0             0             0             0      1.335616     0.8149064   -0.03254936             0             0             0
 3.316639     -2.266804      71.99017     -15.92949      1.183987 -7.285839e-17      -0.38558             0     -1.329406             0     -6.874209      637.0416     -8.882464       1.10837 -6.765422e-17    -0.2216988             0     -1.160724             0             0             0             0      1.134748     0.7821343    -0.5557937             0             0             0             0             0             0        1.3441     0.8156407   -0.03338927             0             0             0
 3.333306     -2.139614      82.61892     -16.80188      1.208593 -7.459311e-17    -0.3841439             0     -1.473971             0      -5.09429      630.6928     -6.799809      1.112956 -6.852158e-17    -0.2213671             0     -1.311725             0             0             0             0      1.134659     0.7804688    -0.5555528             0             0             0             0             0             0      1.352433     0.8159452   -0.03402891             0             0             0
